<?xml version="1.0" standalone="no"?>
<!DOCTYPE svg PUBLIC "-//W3C//DTD SVG 20010904//EN"
 "http://www.w3.org/TR/2001/REC-SVG-20010904/DTD/svg10.dtd">
<svg version="1.0" xmlns="http://www.w3.org/2000/svg"
 width="300.000000pt" height="200.000000pt" viewBox="0 0 300.000000 200.000000"
 preserveAspectRatio="xMidYMid meet">

<g transform="translate(0.000000,200.000000) scale(0.100000,-0.100000)"
fill="#000000" stroke="none">
<path d="M1520 1063 c-55 -21 -67 -78 -23 -113 46 -36 123 -4 123 50 0 40 -60
78 -100 63z m40 -63 c0 -43 -23 -57 -35 -20 -9 27 3 60 21 60 10 0 14 -12 14
-40z"/>
<path d="M1940 1052 c-26 -21 -32 -71 -11 -95 19 -24 60 -30 87 -12 13 8 24
20 24 25 0 14 -28 12 -32 -2 -8 -24 -38 1 -38 32 0 31 30 56 38 32 6 -20 32
-13 32 8 0 12 -7 20 -17 20 -10 0 -27 3 -39 6 -12 3 -30 -2 -44 -14z"/>
<path d="M1160 1051 c0 -6 5 -13 10 -16 6 -3 10 -19 10 -35 0 -16 -4 -32 -10
-35 -22 -13 -8 -25 30 -25 38 0 52 12 30 25 -17 11 0 25 30 25 34 0 44 12 36
46 -6 22 -11 24 -71 24 -36 0 -65 -4 -65 -9z m90 -37 c0 -9 -5 -14 -12 -12
-18 6 -21 28 -4 28 9 0 16 -7 16 -16z"/>
<path d="M1315 1000 l0 -60 33 0 c31 0 34 2 28 25 -4 14 -2 25 4 25 5 0 10 -8
10 -19 0 -10 7 -24 15 -31 15 -13 55 -5 55 11 0 6 -3 8 -8 5 -4 -2 -12 7 -19
20 -7 14 -7 24 -1 24 5 0 8 12 6 28 -3 26 -6 27 -63 30 l-60 3 0 -61z m83 18
c-6 -18 -28 -21 -28 -4 0 9 7 16 16 16 9 0 14 -5 12 -12z"/>
<path d="M1630 1040 c0 -21 15 -27 25 -10 4 6 11 8 16 5 12 -8 12 -62 -1 -70
-22 -13 -8 -25 30 -25 38 0 52 12 30 25 -5 3 -10 22 -10 41 0 19 5 34 10 34 6
0 10 -4 10 -10 0 -5 7 -10 15 -10 8 0 15 9 15 20 0 18 -7 20 -70 20 -63 0 -70
-2 -70 -20z"/>
<path d="M1785 1000 l0 -60 57 0 c51 0 58 2 58 20 0 22 -19 27 -37 9 -8 -8
-13 -7 -18 2 -5 7 -1 17 10 26 17 12 17 13 2 13 -9 0 -17 4 -17 9 0 15 18 23
25 11 11 -18 35 -11 35 10 0 18 -7 20 -58 20 l-57 0 0 -60z"/>
<path d="M2053 1040 c1 -20 27 -29 27 -10 0 6 5 10 11 10 8 0 10 -16 6 -50
l-6 -50 34 0 34 0 -6 50 c-4 34 -2 50 6 50 6 0 11 -4 11 -10 0 -5 5 -10 10
-10 6 0 10 9 10 20 0 18 -7 20 -69 20 -64 0 -70 -2 -68 -20z"/>
</g>
</svg>
